# xmcd CD database file
#
# Track frame offsets:
#	150
#	1994
#	20226
#	36673
#	40294
#	58086
#	61086
#	79778
#	99967
#	101769
#	116125
#	119278
#	137948
#	156838
#	160405
#	178890
#	186569
#	205502
#	226067
#
# Disc length: 3223 seconds
#
# Revision: 1
# Processed by: cddbd v1.5.1PL0 Copyright (c) Steve Scherf et al.
# Submitted via: Feurio! 1.67 - http://www.feurio.com
#
DISCID=0c0c9513
DTITLE=Orange Blue - In Love With A Dream
DYEAR=2000
DGENRE=Pop
TTITLE0=I Slallowed The Moon
TTITLE1=When Julie Says
TTITLE2=She's Got That Light
TTITLE3=Is There Anyone
TTITLE4=Morocco
TTITLE5=Telephone Call To N.Y.C. (Part 1)
TTITLE6=In Love With A Dream
TTITLE7=You Are The One
TTITLE8=Theme From If You Believe
TTITLE9=If You Believe
TTITLE10=Telephone Call To N.Y.C. (Part 2)
TTITLE11=Sometimes
TTITLE12=Kind Of Deliverence
TTITLE13=Emma
TTITLE14=Can Somebody Tell Me Who I Am (Acoustic Version)
TTITLE15=Bottom Of A Re Vine Bottle
TTITLE16=The Voice Of My Blood
TTITLE17=Guilty
TTITLE18=Hidden Track
EXTD=YEAR: 2000
EXTT0=
EXTT1=
EXTT2=
EXTT3=
EXTT4=
EXTT5=
EXTT6=
EXTT7=
EXTT8=
EXTT9=
EXTT10=
EXTT11=
EXTT12=
EXTT13=
EXTT14=
EXTT15=
EXTT16=
EXTT17=
EXTT18=
PLAYORDER=
